<svg xmlns="http://www.w3.org/2000/svg" viewBox="0 0 1024 1024" width="1024" height="1024">
  <defs>
    <radialGradient id="bg" cx="50%" cy="50%" r="70%"><stop offset="0%" stop-color="#1c1258"></stop><stop offset="45%" stop-color="#0f0a2e"></stop><stop offset="100%" stop-color="#05030f"></stop></radialGradient>
    <radialGradient id="st" cx="50%" cy="50%" r="50%"><stop offset="0%" stop-color="#f0f0ff"></stop><stop offset="18%" stop-color="#d0d0f8"></stop><stop offset="40%" stop-color="#9898dc"></stop><stop offset="70%" stop-color="#5555b4"></stop><stop offset="100%" stop-color="#2b2890"></stop></radialGradient>
    <filter id="sg" x="-20%" y="-20%" width="140%" height="140%"><feGaussianBlur stdDeviation="14" result="b"></feGaussianBlur><feMerge><feMergeNode in="b"></feMergeNode><feMergeNode in="SourceGraphic"></feMergeNode></feMerge></filter>
    <filter id="ng" x="-30%" y="-30%" width="160%" height="160%"><feGaussianBlur stdDeviation="14" result="b1"></feGaussianBlur><feFlood flood-color="#FF1875" flood-opacity="0.95"></feFlood><feComposite in2="b1" operator="in" result="cg"></feComposite><feMerge><feMergeNode in="cg"></feMergeNode><feMergeNode in="cg"></feMergeNode><feMergeNode in="SourceGraphic"></feMergeNode></feMerge></filter>
  </defs>
  <rect x="0" y="0" width="1024" height="1024" rx="229.4" ry="229.4" fill="url(#bg)"></rect>
  <polygon points="512.0,52.0 577.5,267.6 742.0,113.6 690.9,333.1 910.4,282.0 756.4,446.5 972.0,512.0 756.4,577.5 910.4,742.0 690.9,690.9 742.0,910.4 577.5,756.4 512.0,972.0 446.5,756.4 282.0,910.4 333.1,690.9 113.6,742.0 267.6,577.5 52.0,512.0 267.6,446.5 113.6,282.0 333.1,333.1 282.0,113.6 446.5,267.6" fill="url(#st)" filter="url(#sg)"></polygon>
  <g transform="rotate(-12 512 480) translate(512 480) scale(1.7 0.85) translate(-512 -480)" filter="url(#ng)" fill="#FF1875" stroke="#ffffff" stroke-width="36" stroke-linejoin="round" paint-order="stroke fill">
    <path d="M441.19 483.46L441.19 483.46Q392.96 483.46 392.96 414.38L392.96 414.38L392.96 317.28Q392.96 254.21 448.22 254.21L448.22 254.21Q471.00 254.21 483.15 263.36Q495.30 272.51 499.91 290.03Q504.51 307.56 504.51 332.76L504.51 332.76L460.51 332.76L460.51 312.81Q460.51 305.51 458.52 300.59Q456.54 295.66 450.27 295.66L450.27 295.66Q442.47 295.66 439.97 300.91Q437.48 306.15 437.48 312.42L437.48 312.42L437.48 421.55Q437.48 430.63 439.85 436.32Q442.21 442.02 449.12 442.02L449.12 442.02Q456.28 442.02 458.65 436.32Q461.02 430.63 461.02 421.29L461.02 421.29L461.02 389.18L448.99 389.18L448.99 350.29L504.00 350.29L504.00 481.42L485.96 481.42L478.29 462.48Q466.52 483.46 441.19 483.46ZM575.51 483.46L575.51 483.46Q548.52 483.46 534.26 467.15Q519.99 450.84 519.99 420.01L519.99 420.01L519.99 313.06Q519.99 284.15 534.13 269.18Q548.27 254.21 575.51 254.21L575.51 254.21Q602.76 254.21 616.90 269.18Q631.04 284.15 631.04 313.06L631.04 313.06L631.04 420.01Q631.04 450.84 616.77 467.15Q602.51 483.46 575.51 483.46ZM575.90 442.02L575.90 442.02Q586.13 442.02 586.13 422.19L586.13 422.19L586.13 312.29Q586.13 295.66 576.15 295.66L576.15 295.66Q564.90 295.66 564.90 312.68L564.90 312.68L564.90 422.44Q564.90 432.93 567.46 437.47Q570.01 442.02 575.90 442.02Z"></path>
    <path d="M441.19 703.46L441.19 703.46Q392.96 703.46 392.96 634.38L392.96 634.38L392.96 537.28Q392.96 474.21 448.22 474.21L448.22 474.21Q471.00 474.21 483.15 483.36Q495.30 492.51 499.91 510.03Q504.51 527.56 504.51 552.76L504.51 552.76L460.51 552.76L460.51 532.81Q460.51 525.51 458.52 520.59Q456.54 515.66 450.27 515.66L450.27 515.66Q442.47 515.66 439.97 520.91Q437.48 526.15 437.48 532.42L437.48 532.42L437.48 641.55Q437.48 650.63 439.85 656.32Q442.21 662.01 449.12 662.01L449.12 662.01Q456.28 662.01 458.65 656.32Q461.02 650.63 461.02 641.29L461.02 641.29L461.02 609.18L448.99 609.18L448.99 570.29L504.00 570.29L504.00 701.42L485.96 701.42L478.29 682.48Q466.52 703.46 441.19 703.46ZM575.51 703.46L575.51 703.46Q548.52 703.46 534.26 687.15Q519.99 670.84 519.99 640.01L519.99 640.01L519.99 533.06Q519.99 504.15 534.13 489.18Q548.27 474.21 575.51 474.21L575.51 474.21Q602.76 474.21 616.90 489.18Q631.04 504.15 631.04 533.06L631.04 533.06L631.04 640.01Q631.04 670.84 616.77 687.15Q602.51 703.46 575.51 703.46ZM575.90 662.01L575.90 662.01Q586.13 662.01 586.13 642.19L586.13 642.19L586.13 532.29Q586.13 515.66 576.15 515.66L576.15 515.66Q564.90 515.66 564.90 532.68L564.90 532.68L564.90 642.44Q564.90 652.93 567.46 657.47Q570.01 662.01 575.90 662.01Z"></path>
  </g>
  <path d="M172.86 777.44L172.86 777.44Q174.36 763.19 177.86 756.00L177.86 756.00Q184.54 742.12 197.79 736.31L197.79 736.31Q209.61 731.12 223.48 731.12L223.48 731.12Q246.73 731.12 257.42 743.87L257.42 743.87Q263.86 751.44 264.86 762.69L264.86 762.69L265.42 768.56Q264.36 769.56 251.98 769.56L251.98 769.56L242.04 769.44L241.23 769.44L235.79 769.31L234.29 769.37L233.04 769.37Q231.29 769.37 230.39 764.25Q229.48 759.12 227.64 757.47Q225.79 755.81 223.36 755.81Q220.92 755.81 219.07 756.69Q217.23 757.56 216.04 758.78Q214.86 760.00 214.04 762.25L214.04 762.25Q212.54 766.12 212.23 770.47Q211.92 774.81 211.92 780.19L211.92 780.19L211.92 781.69L211.67 788.00Q211.67 805.25 221.42 805.62L221.42 805.62Q223.92 805.62 224.92 804.75L224.92 804.75Q227.61 802.37 229.61 795.19L229.61 795.19Q230.04 793.69 230.67 792.75L230.67 792.75L233.04 792.75L235.92 792.81L246.04 792.81L249.11 792.75L255.04 792.81L258.67 792.81L262.36 792.87L264.86 792.87Q265.61 792.94 265.92 794.19L265.92 794.19L265.73 796.25Q265.17 803.62 262.29 809.62L262.29 809.62Q256.98 820.62 245.57 825.97Q234.17 831.31 220.54 831.31L220.54 831.31Q196.73 831.31 184.79 817.25Q172.86 803.19 172.86 777.44ZM307.42 776.56L307.17 779.75Q307.17 779.81 307.11 780.06L307.11 780.06L307.11 780.25Q306.86 782.87 306.86 786.12Q306.86 789.37 307.39 793.00Q307.92 796.62 309.14 800.25Q310.36 803.87 312.92 806.12L312.92 806.12Q315.67 808.50 319.07 808.50Q322.48 808.50 324.82 807.53Q327.17 806.56 328.76 805.06Q330.36 803.56 331.54 801.00L331.54 801.00Q334.54 794.19 334.54 779.87L334.54 779.87Q334.54 765.31 331.20 759.47Q327.86 753.62 321.11 753.62L321.11 753.62Q317.73 753.62 315.20 755.25Q312.67 756.87 311.39 758.62Q310.11 760.37 308.76 766.06Q307.42 771.75 307.42 776.56L307.42 776.56ZM271.23 780.25L271.23 780.25L271.36 778.87Q272.11 771.06 273.36 765.03Q274.61 759.00 277.42 753.75L277.42 753.75Q284.11 742.19 296.07 736.22Q308.04 730.25 321.89 730.25Q335.73 730.25 347.04 735.81L347.04 735.81Q353.79 739.12 357.61 744.19L357.61 744.19Q364.92 753.31 367.23 761.00Q369.54 768.69 369.54 778.75L369.54 778.75Q369.54 801.12 360.29 812.87L360.29 812.87L357.42 816.69Q351.61 823.44 340.98 827.09Q330.36 830.75 319.92 830.87L319.92 830.87Q302.04 830.87 290.61 823.37L290.61 823.37Q271.23 810.81 271.23 780.25ZM470.42 775.12L470.48 778.81L470.29 796.37Q470.29 804.44 467.70 810.62Q465.11 816.81 460.86 820.62L460.86 820.62Q449.29 831.12 426.67 831.12Q404.04 831.12 391.48 820.12L391.48 820.12Q387.04 816.31 384.01 810.22Q380.98 804.12 380.36 796.44L380.36 796.44Q380.67 770.31 380.67 748.12L380.67 748.12Q380.36 748.12 380.36 741.56Q380.36 735.00 380.92 733.44L380.92 733.44L382.23 733.44Q391.42 732.94 407.29 732.94L407.29 732.94Q408.42 733.19 411.39 733.25Q414.36 733.31 415.48 733.44L415.48 733.44L417.42 733.69Q417.86 746.06 417.98 767.75L417.98 767.75L417.61 792.87Q417.61 805.37 424.86 805.37L424.86 805.37Q427.92 805.37 430.01 802.69Q432.11 800.00 432.23 796.62L432.23 796.62L432.48 796.00L432.67 774.94L432.73 773.06Q432.73 758.56 432.36 745.06L432.36 745.06L432.23 740.50Q432.11 737.75 432.11 735.56Q432.11 733.37 432.79 732.56L432.79 732.56Q456.92 732.56 469.17 732.75L469.17 732.75Q469.61 733.19 470.29 733.56L470.29 733.56L470.23 733.56L470.92 734.00Q470.42 745.81 470.42 764.37L470.42 764.37L470.42 775.12ZM578.48 783.50L578.48 783.50L578.42 787.69L578.42 810.81L578.54 821.81L578.54 824.94L578.61 827.87Q578.23 828.37 575.54 828.37L575.54 828.37L573.92 828.37L554.29 828.62Q541.79 828.62 535.67 828.56L535.67 828.56Q534.73 827.56 528.86 810.37L528.86 810.37L516.92 778.69L514.67 779.00L514.61 785.37L514.61 802.31L514.86 819.25L514.86 826.25Q514.86 829.06 513.61 829.19L513.61 829.19Q507.42 829.00 501.79 829.00L501.79 829.00L499.86 829.00L490.42 829.25L489.17 829.25L484.67 829.37L484.48 829.25Q482.42 827.31 482.42 826.44L482.42 826.44L482.42 825.31L482.48 824.06L482.79 799.69Q482.79 759.56 483.54 739.00L483.54 739.00L483.67 733.81Q483.67 733.25 526.73 732.81L526.73 732.81Q527.11 733.06 527.86 735.56L527.86 735.56L527.86 735.37L528.23 736.62Q532.86 749.87 539.48 767.03Q546.11 784.19 546.23 784.56L546.23 784.56L548.36 784.44L548.61 733.50Q548.61 733.00 557.73 733.00L557.73 733.00L573.42 733.31L578.04 733.31Q578.48 754.00 578.48 783.50ZM670.23 751.31L670.29 756.31Q670.29 758.37 669.86 758.37L669.86 758.37Q669.86 758.37 647.23 758.19L647.23 758.19Q647.11 764.25 647.11 777.12Q647.11 790.00 647.17 795.00L647.17 795.00L647.42 828.12Q647.11 829.00 646.17 829.06L646.17 829.06L632.98 828.87L632.92 828.94L628.79 828.87L617.36 828.87Q612.73 828.87 610.42 828.94L610.42 828.94L609.36 828.00Q609.29 827.94 608.54 827.00L608.54 827.00Q608.54 821.50 608.98 802.56L608.98 802.56L609.67 769.31L609.54 767.75Q609.11 761.56 608.70 760.41Q608.29 759.25 607.11 759.16Q605.92 759.06 605.36 759.06L605.36 759.06L602.86 759.19L587.36 758.94Q586.54 757.31 586.54 751.62L586.54 751.62L586.67 746.12L586.67 744.44Q586.61 734.44 586.48 733.75L586.48 733.75Q586.61 733.75 586.98 733.87L586.98 733.87L666.54 733.19Q668.98 733.19 669.61 733.53Q670.23 733.87 670.23 734.81L670.23 734.81L670.23 751.31ZM678.17 758.94L678.23 749.87L677.92 733.44Q677.98 733.44 678.36 733.62L678.36 733.62Q725.86 732.81 749.92 732.75L749.92 732.75Q750.17 732.87 750.29 733.12L750.29 733.12L750.29 750.75Q750.29 753.31 750.17 754.94L750.17 754.94Q749.86 755.94 746.48 755.94L746.48 755.94L746.04 755.94Q730.92 755.94 714.54 755.44L714.54 755.44Q714.54 756.00 714.39 757.44Q714.23 758.87 714.17 759.50L714.17 759.50L713.86 761.87Q713.54 764.25 713.42 770.12L713.42 770.12L732.79 769.69Q737.79 769.56 740.04 769.56L740.04 769.56L741.04 769.56Q744.86 769.56 746.04 769.78Q747.23 770.00 747.23 771.06L747.23 771.06L747.17 771.56L747.17 773.06L747.48 789.12L747.42 789.19L747.42 789.12Q728.42 790.06 717.04 790.06L717.04 790.06L714.11 790.06L714.11 805.19L748.04 804.12Q750.86 804.12 751.61 804.94L751.61 804.94Q751.54 806.56 751.54 809.56L751.54 809.56L751.98 826.56Q751.98 828.12 750.61 828.37L750.61 828.37L729.86 828.19Q723.73 828.19 705.48 828.62L705.48 828.62L695.23 828.87Q684.36 829.25 679.11 829.25L679.11 829.25L678.92 829.12L678.98 829.12Q678.36 828.50 677.79 827.94L677.79 827.94L677.79 825.75L678.17 758.94ZM781.04 733.37L789.67 733.25L809.73 733.06Q816.11 733.06 821.29 733.31L821.29 733.31Q835.23 733.69 842.51 739.87Q849.79 746.06 849.79 757.31L849.79 757.31Q849.79 765.12 845.23 770.66Q840.67 776.19 831.92 780.37L831.92 780.37Q845.79 784.75 848.73 801.62L848.73 801.62Q849.42 805.31 849.82 810.06Q850.23 814.81 850.48 816.44L850.48 816.44L851.11 819.62Q852.11 825.25 852.86 827.75L852.86 827.75L852.61 827.94Q841.98 828.62 833.20 828.62Q824.42 828.62 817.67 828.31L817.67 828.31L817.29 828.31Q815.36 828.31 813.17 809.87L813.17 809.87L812.86 807.19Q812.61 800.31 810.45 797.94Q808.29 795.56 802.98 795.56L802.98 795.56L802.17 795.62L798.86 795.62L798.86 814.62L798.92 816.62L798.92 828.06Q798.73 828.69 797.98 828.81L797.98 828.81Q791.11 829.06 778.57 829.06Q766.04 829.06 762.04 829.12L762.04 829.12L761.67 829.00L761.54 829.06Q761.42 829.06 761.17 828.87L761.17 828.87L761.29 823.25L761.23 821.37L761.48 795.44L761.48 790.87L761.54 786.19L761.61 770.00L761.67 767.87L761.48 753.69Q761.48 753.69 761.73 733.75L761.73 733.75Q761.73 733.25 765.29 733.25L765.29 733.25L769.29 733.31L773.11 733.31L781.04 733.37ZM853.23 827.56L853.23 827.56L852.92 827.75L852.92 827.62Q852.92 827.56 853.23 827.56ZM852.86 827.75L852.92 827.75L852.92 827.81Q852.86 827.81 852.86 827.75L852.86 827.75ZM812.79 753.62L812.79 753.62Q809.04 752.00 802.79 752.00L802.79 752.00L799.17 752.00Q798.48 753.00 798.48 762.53Q798.48 772.06 798.79 775.31L798.79 775.31Q818.36 774.87 818.36 761.81L818.36 761.81Q818.36 756.25 812.79 753.62Z" fill="#ffffff" stroke="#0d0a2a" stroke-width="22" stroke-linejoin="round" paint-order="stroke fill"></path>
</svg>